<svg width="39" height="39" viewBox="0 0 39 39" fill="none" xmlns="http://www.w3.org/2000/svg">
<g clip-path="url(#clip0_132_15363)">
<path d="M26.7814 16.5055C26.8776 16.8753 26.9515 17.3894 27.0033 18.0477C27.0477 18.521 27.0773 19.0425 27.0921 19.6121L27.1032 20.3221L27.0921 21.0322C27.0773 21.6018 27.0477 22.1232 27.0033 22.5966C26.9515 23.2549 26.8776 23.769 26.7814 24.1388C26.6853 24.4791 26.5133 24.7749 26.2655 25.0264C26.0177 25.2779 25.7237 25.448 25.3834 25.5368C25.021 25.6329 24.3072 25.7106 23.2421 25.7698C22.4877 25.8142 21.5927 25.8437 20.5571 25.8585L19.2368 25.8696L17.9165 25.8585C16.881 25.8437 15.9823 25.8142 15.2204 25.7698C14.1553 25.7106 13.4415 25.6329 13.0791 25.5368C12.7389 25.448 12.4448 25.2779 12.197 25.0264C11.9493 24.7749 11.781 24.4791 11.6922 24.1388C11.5961 23.769 11.5184 23.2549 11.4592 22.5966C11.4148 22.1232 11.3853 21.6018 11.3705 21.0322L11.3594 20.3221L11.3705 19.6121C11.3853 19.0425 11.4148 18.521 11.4592 18.0477C11.5184 17.3894 11.5961 16.8753 11.6922 16.5055C11.781 16.1652 11.9493 15.8693 12.197 15.6179C12.4448 15.3664 12.7389 15.1962 13.0791 15.1075C13.4415 15.0113 14.1553 14.9337 15.2204 14.8745C15.9823 14.8301 16.881 14.8005 17.9165 14.7857L19.2368 14.7746L20.5571 14.7857C21.5927 14.8005 22.4877 14.8301 23.2421 14.8745C24.3072 14.9337 25.021 15.0113 25.3834 15.1075C25.7237 15.1962 26.0177 15.3664 26.2655 15.6179C26.5133 15.8693 26.6853 16.1652 26.7814 16.5055ZM17.628 22.6632L21.7443 20.3221L17.628 17.9811V22.6632Z" fill="#424242"/>
</g>
<defs>
<clipPath id="clip0_132_15363">
<rect width="15.7438" height="15.7438" fill="white" transform="matrix(1 0 0 -1 11.3594 28.1929)"/>
</clipPath>
</defs>
</svg>
