<svg width="38" height="39" viewBox="0 0 38 39" fill="none" xmlns="http://www.w3.org/2000/svg">
<path d="M21.3446 18.655C21.3446 17.881 21.0756 17.2184 20.5377 16.6674C19.9998 16.1164 19.3372 15.8408 18.55 15.8408C17.7628 15.8408 17.1003 16.1164 16.5624 16.6674C16.0245 17.2184 15.7489 17.881 15.7358 18.655C15.7227 19.4291 15.9982 20.0917 16.5624 20.6427C17.1265 21.1937 17.7891 21.4692 18.55 21.4692C19.311 21.4692 19.9735 21.1937 20.5377 20.6427C21.1018 20.0917 21.3708 19.4291 21.3446 18.655ZM22.8599 18.655C22.8599 19.849 22.4401 20.8723 21.6004 21.7251C20.7607 22.5779 19.7439 22.9977 18.55 22.9846C17.3561 22.9715 16.3328 22.5516 15.48 21.7251C14.6272 20.8985 14.2074 19.8752 14.2205 18.655C14.2336 17.4349 14.6534 16.4116 15.48 15.585C16.3065 14.7585 17.3299 14.3386 18.55 14.3255C19.7702 14.3124 20.787 14.7322 21.6004 15.585C22.4138 16.4378 22.8337 17.4611 22.8599 18.655ZM24.0604 14.1484C24.0604 14.4239 23.962 14.6601 23.7652 14.8569C23.5684 15.0537 23.3256 15.1521 23.037 15.1521C22.7484 15.1521 22.5122 15.0537 22.3285 14.8569C22.1449 14.6601 22.0465 14.4239 22.0333 14.1484C22.0202 13.8729 22.1186 13.6367 22.3285 13.4399C22.5385 13.2431 22.7746 13.1447 23.037 13.1447C23.2994 13.1447 23.5421 13.2431 23.7652 13.4399C23.9882 13.6367 24.0866 13.8729 24.0604 14.1484ZM18.55 11.7278C18.4976 11.7278 18.2155 11.7278 17.7038 11.7278H16.5427C16.2803 11.7278 15.9261 11.7409 15.48 11.7671C15.0339 11.7934 14.66 11.8262 14.3582 11.8655C14.0565 11.9049 13.7941 11.9771 13.5711 12.082C13.2037 12.2263 12.8823 12.4362 12.6067 12.7118C12.3312 12.9873 12.1148 13.3087 11.9573 13.6761C11.8786 13.886 11.813 14.1484 11.7605 14.4633C11.708 14.7781 11.6687 15.1586 11.6424 15.6047C11.6162 16.0508 11.6096 16.3984 11.6228 16.6477C11.6359 16.897 11.6359 17.284 11.6228 17.8088C11.6096 18.3336 11.6096 18.6157 11.6228 18.655C11.6359 18.6944 11.6359 18.9765 11.6228 19.5013C11.6096 20.0261 11.6096 20.4131 11.6228 20.6624C11.6359 20.9117 11.6424 21.2593 11.6424 21.7054C11.6424 22.1515 11.6818 22.532 11.7605 22.8468L11.9573 23.634C12.1148 24.0014 12.3312 24.3228 12.6067 24.5983C12.8823 24.8738 13.2037 25.0838 13.5711 25.2281C13.781 25.3068 14.0434 25.379 14.3582 25.4446C14.6731 25.5102 15.047 25.543 15.48 25.543C15.9129 25.543 16.2672 25.5561 16.5427 25.5823C16.8182 25.6086 17.2052 25.6086 17.7038 25.5823C18.2024 25.5561 18.4844 25.5561 18.55 25.5823C18.6156 25.6086 18.8911 25.6086 19.3766 25.5823C19.862 25.5561 20.249 25.5561 20.5377 25.5823C20.8263 25.6086 21.1806 25.5954 21.6004 25.543C22.0202 25.4905 22.4007 25.4577 22.7418 25.4446C23.0829 25.4314 23.3388 25.3593 23.5093 25.2281C23.8767 25.0838 24.2047 24.8738 24.4933 24.5983C24.7819 24.3228 24.9919 24.0014 25.1231 23.634C25.2018 23.4241 25.2674 23.1617 25.3199 22.8468C25.3723 22.532 25.4117 22.1515 25.4379 21.7054C25.4642 21.2593 25.4707 20.9117 25.4576 20.6624C25.4445 20.4131 25.4445 20.0261 25.4576 19.5013C25.4707 18.9765 25.4707 18.6944 25.4576 18.655C25.4445 18.6157 25.4445 18.3336 25.4576 17.8088C25.4707 17.284 25.4707 16.897 25.4576 16.6477C25.4445 16.3984 25.4379 16.0508 25.4379 15.6047C25.4379 15.1586 25.3986 14.7781 25.3199 14.4633L25.1231 13.6761C24.9787 13.3087 24.7688 12.9873 24.4933 12.7118C24.2178 12.4362 23.8898 12.2263 23.5093 12.082C23.2994 12.0033 23.0436 11.9311 22.7418 11.8655C22.4401 11.7999 22.0596 11.7671 21.6004 11.7671C21.1412 11.7671 20.787 11.754 20.5377 11.7278C20.2884 11.7015 19.9014 11.7015 19.3766 11.7278C18.8518 11.754 18.5763 11.754 18.55 11.7278ZM26.973 18.655C26.973 20.3344 26.9533 21.4955 26.9139 22.1384C26.8483 23.6603 26.3957 24.841 25.556 25.6807C24.7163 26.5204 23.5421 26.973 22.0333 27.0386C21.3774 27.078 20.2162 27.0977 18.55 27.0977C16.8838 27.0977 15.7227 27.078 15.0667 27.0386C13.5448 26.9599 12.364 26.5073 11.5244 25.6807C10.6847 24.8542 10.2321 23.6734 10.1665 22.1384C10.1271 21.4955 10.1074 20.3344 10.1074 18.655C10.1074 16.9757 10.1271 15.8146 10.1665 15.1717C10.2321 13.6498 10.6847 12.469 11.5244 11.6294C12.364 10.7897 13.5448 10.3371 15.0667 10.2715C15.7096 10.2321 16.8707 10.2124 18.55 10.2124C20.2294 10.2124 21.3905 10.2321 22.0333 10.2715C23.5552 10.3502 24.7295 10.8028 25.556 11.6294C26.3826 12.4559 26.8352 13.6367 26.9139 15.1717C26.9533 15.8146 26.973 16.9757 26.973 18.655Z" fill="#424242"/>
</svg>
