<svg width="38" height="39" viewBox="0 0 38 39" fill="none" xmlns="http://www.w3.org/2000/svg">
<path d="M13.7965 15.683V26.5659H10.1755V15.683H13.7965ZM14.0327 12.3178C14.0327 12.8557 13.8425 13.3018 13.462 13.656C13.0815 14.0102 12.5895 14.1874 11.986 14.1874H11.9663C11.3628 14.1874 10.8774 14.0102 10.51 13.656C10.1427 13.3018 9.95898 12.8557 9.95898 12.3178C9.95898 11.7799 10.1492 11.3338 10.5297 10.9796C10.9102 10.6253 11.4022 10.4482 12.0057 10.4482C12.6092 10.4482 13.0946 10.6253 13.462 10.9796C13.8293 11.3338 14.0196 11.7799 14.0327 12.3178ZM26.8245 20.3274V26.5659H23.2231V20.7407C23.2231 19.9666 23.0723 19.3631 22.7705 18.9302C22.4687 18.4972 22.003 18.2807 21.3732 18.2807C20.914 18.2807 20.5336 18.4054 20.2318 18.6547C19.9301 18.9039 19.6939 19.2188 19.5233 19.5993C19.4446 19.8223 19.4053 20.1175 19.4053 20.4849V26.5659H15.7842C15.7973 23.6402 15.8039 21.2721 15.8039 19.4615V16.2144L15.7842 15.683H19.4053V17.2574H19.3856C19.5299 17.0212 19.6808 16.8179 19.8382 16.6473C19.9957 16.4768 20.199 16.2865 20.4483 16.0766C20.6976 15.8667 21.019 15.7093 21.4126 15.6043C21.8062 15.4993 22.226 15.4403 22.6721 15.4272C23.9185 15.4272 24.9221 15.8405 25.6831 16.667C26.444 17.4936 26.8245 18.7137 26.8245 20.3274Z" fill="#424242"/>
</svg>
