<svg width="20" height="20" viewBox="0 0 20 20" fill="none" xmlns="http://www.w3.org/2000/svg">
<g clip-path="url(#clip0_123_14782)">
<path fill-rule="evenodd" clip-rule="evenodd" d="M8.7507 1.66821C7.62119 1.66831 6.50809 1.93852 5.50425 2.45629C4.50041 2.97407 3.63494 3.72439 2.98006 4.64467C2.32518 5.56495 1.89987 6.6285 1.73962 7.74658C1.57937 8.86466 1.68882 10.0049 2.05885 11.072C2.42887 12.1392 3.04874 13.1024 3.86673 13.8813C4.68472 14.6602 5.67712 15.2322 6.76113 15.5495C7.84513 15.8669 8.98932 15.9204 10.0982 15.7056C11.2071 15.4909 12.2486 15.014 13.1357 14.3149L16.179 17.3582C16.3362 17.51 16.5467 17.594 16.7652 17.5921C16.9837 17.5902 17.1927 17.5026 17.3472 17.3481C17.5017 17.1936 17.5894 16.9845 17.5913 16.766C17.5932 16.5476 17.5092 16.337 17.3574 16.1799L14.314 13.1365C15.1374 12.0921 15.65 10.8369 15.7933 9.51465C15.9366 8.19242 15.7047 6.85656 15.1242 5.65996C14.5437 4.46335 13.6381 3.45434 12.511 2.74841C11.3838 2.04247 10.0807 1.66812 8.7507 1.66821ZM3.33403 8.75155C3.33403 7.31496 3.90472 5.93721 4.92054 4.92138C5.93636 3.90556 7.31411 3.33488 8.7507 3.33488C10.1873 3.33488 11.565 3.90556 12.5809 4.92138C13.5967 5.93721 14.1674 7.31496 14.1674 8.75155C14.1674 10.1881 13.5967 11.5659 12.5809 12.5817C11.565 13.5975 10.1873 14.1682 8.7507 14.1682C7.31411 14.1682 5.93636 13.5975 4.92054 12.5817C3.90472 11.5659 3.33403 10.1881 3.33403 8.75155Z" fill="#9E9E9E"/>
</g>
<defs>
<clipPath id="clip0_123_14782">
<rect width="20" height="20" fill="white" transform="translate(0 0.00146484)"/>
</clipPath>
</defs>
</svg>
