<svg width="20" height="21" viewBox="0 0 20 21" fill="none" xmlns="http://www.w3.org/2000/svg">
<g clip-path="url(#clip0_123_14717)">
<path fill-rule="evenodd" clip-rule="evenodd" d="M8.7507 1.91748C7.62119 1.91758 6.50809 2.18778 5.50425 2.70556C4.50041 3.22333 3.63494 3.97366 2.98006 4.89394C2.32518 5.81422 1.89987 6.87777 1.73962 7.99585C1.57937 9.11393 1.68882 10.2541 2.05885 11.3213C2.42887 12.3885 3.04874 13.3517 3.86673 14.1306C4.68472 14.9095 5.67712 15.4815 6.76113 15.7988C7.84513 16.1162 8.98932 16.1697 10.0982 15.9549C11.2071 15.7401 12.2486 15.2633 13.1357 14.5641L16.179 17.6075C16.3362 17.7593 16.5467 17.8433 16.7652 17.8414C16.9837 17.8395 17.1927 17.7518 17.3472 17.5973C17.5017 17.4428 17.5894 17.2338 17.5913 17.0153C17.5932 16.7968 17.5092 16.5863 17.3574 16.4291L14.314 13.3858C15.1374 12.3413 15.65 11.0861 15.7933 9.76392C15.9366 8.44169 15.7047 7.10583 15.1242 5.90923C14.5437 4.71262 13.6381 3.70361 12.511 2.99767C11.3838 2.29174 10.0807 1.91739 8.7507 1.91748ZM3.33403 9.00081C3.33403 7.56422 3.90472 6.18647 4.92054 5.17065C5.93636 4.15483 7.31411 3.58415 8.7507 3.58415C10.1873 3.58415 11.565 4.15483 12.5809 5.17065C13.5967 6.18647 14.1674 7.56422 14.1674 9.00081C14.1674 10.4374 13.5967 11.8152 12.5809 12.831C11.565 13.8468 10.1873 14.4175 8.7507 14.4175C7.31411 14.4175 5.93636 13.8468 4.92054 12.831C3.90472 11.8152 3.33403 10.4374 3.33403 9.00081Z" fill="#9E9E9E"/>
</g>
<defs>
<clipPath id="clip0_123_14717">
<rect width="20" height="20" fill="white" transform="translate(0 0.250732)"/>
</clipPath>
</defs>
</svg>
