<svg width="24" height="24" viewBox="0 0 24 24" fill="none" xmlns="http://www.w3.org/2000/svg">
<g clip-path="url(#clip0_123_14695)">
<path fill-rule="evenodd" clip-rule="evenodd" d="M10.5695 2.30151C9.28166 2.30162 8.01256 2.6097 6.86804 3.20004C5.72352 3.79037 4.73677 4.64585 3.99011 5.6951C3.24346 6.74435 2.75855 7.95695 2.57584 9.23172C2.39313 10.5065 2.51792 11.8065 2.9398 13.0232C3.36168 14.2399 4.06841 15.3381 5.00104 16.2262C5.93367 17.1142 7.06514 17.7664 8.30107 18.1282C9.53699 18.49 10.8415 18.5511 12.1058 18.3062C13.3701 18.0613 14.5575 17.5176 15.569 16.7205L19.0388 20.1903C19.218 20.3634 19.458 20.4592 19.7071 20.457C19.9563 20.4549 20.1946 20.3549 20.3707 20.1788C20.5469 20.0026 20.6468 19.7643 20.649 19.5152C20.6511 19.2661 20.5554 19.0261 20.3823 18.8469L16.9125 15.377C17.8512 14.1862 18.4357 12.7551 18.599 11.2476C18.7624 9.74004 18.498 8.21697 17.8362 6.85267C17.1744 5.48837 16.1418 4.33796 14.8567 3.53309C13.5716 2.72822 12.0858 2.30141 10.5695 2.30151ZM4.39369 10.3775C4.39369 8.73961 5.04435 7.16877 6.20253 6.01059C7.36071 4.85241 8.93155 4.20175 10.5695 4.20175C12.2074 4.20175 13.7782 4.85241 14.9364 6.01059C16.0946 7.16877 16.7452 8.73961 16.7452 10.3775C16.7452 12.0154 16.0946 13.5863 14.9364 14.7445C13.7782 15.9026 12.2074 16.5533 10.5695 16.5533C8.93155 16.5533 7.36071 15.9026 6.20253 14.7445C5.04435 13.5863 4.39369 12.0154 4.39369 10.3775Z" fill="#9E9E9E"/>
</g>
<defs>
<clipPath id="clip0_123_14695">
<rect width="22.8029" height="22.8029" fill="white" transform="translate(0.591797 0.401367)"/>
</clipPath>
</defs>
</svg>
