<svg width="16" height="15" viewBox="0 0 16 15" fill="none" xmlns="http://www.w3.org/2000/svg">
<path d="M8.75941 13.0619C10.2131 11.7825 12.7995 9.16857 12.7995 6.76987C12.7995 5.44266 12.2723 4.16981 11.3338 3.23133C10.3953 2.29286 9.12247 1.76562 7.79526 1.76562C6.46805 1.76562 5.1952 2.29286 4.25673 3.23133C3.31825 4.16981 2.79102 5.44266 2.79102 6.76987C2.79102 9.16857 5.37654 11.7825 6.83111 13.0619C7.09643 13.2987 7.43963 13.4296 7.79526 13.4296C8.1509 13.4296 8.49409 13.2987 8.75941 13.0619ZM6.12718 6.76987C6.12718 6.32747 6.30292 5.90319 6.61575 5.59036C6.92858 5.27753 7.35286 5.10179 7.79526 5.10179C8.23766 5.10179 8.66195 5.27753 8.97477 5.59036C9.2876 5.90319 9.46334 6.32747 9.46334 6.76987C9.46334 7.21227 9.2876 7.63656 8.97477 7.94938C8.66195 8.26221 8.23766 8.43795 7.79526 8.43795C7.35286 8.43795 6.92858 8.26221 6.61575 7.94938C6.30292 7.63656 6.12718 7.21227 6.12718 6.76987Z" fill="#D43E2E"/>
</svg>
