<svg width="15" height="15" viewBox="0 0 15 15" fill="none" xmlns="http://www.w3.org/2000/svg">
<path d="M11.7835 2.69105H11.2003V2.10786C11.2003 1.75794 10.967 1.52466 10.6171 1.52466C10.2672 1.52466 10.0339 1.75794 10.0339 2.10786V2.69105H5.36833V2.10786C5.36833 1.75794 5.13505 1.52466 4.78513 1.52466C4.43521 1.52466 4.20193 1.75794 4.20193 2.10786V2.69105H3.61873C2.6273 2.69105 1.86914 3.44921 1.86914 4.44065V5.02385H13.5331V4.44065C13.5331 3.44921 12.7749 2.69105 11.7835 2.69105ZM1.86914 11.439C1.86914 12.4305 2.6273 13.1886 3.61873 13.1886H11.7835C12.7749 13.1886 13.5331 12.4305 13.5331 11.439V6.19024H1.86914V11.439ZM10.6171 7.35664C10.967 7.35664 11.2003 7.58992 11.2003 7.93983C11.2003 8.28975 10.967 8.52303 10.6171 8.52303C10.2672 8.52303 10.0339 8.28975 10.0339 7.93983C10.0339 7.58992 10.2672 7.35664 10.6171 7.35664ZM10.6171 9.68943C10.967 9.68943 11.2003 9.92271 11.2003 10.2726C11.2003 10.6225 10.967 10.8558 10.6171 10.8558C10.2672 10.8558 10.0339 10.6225 10.0339 10.2726C10.0339 9.92271 10.2672 9.68943 10.6171 9.68943ZM7.70112 7.35664C8.05104 7.35664 8.28432 7.58992 8.28432 7.93983C8.28432 8.28975 8.05104 8.52303 7.70112 8.52303C7.3512 8.52303 7.11792 8.28975 7.11792 7.93983C7.11792 7.58992 7.3512 7.35664 7.70112 7.35664ZM7.70112 9.68943C8.05104 9.68943 8.28432 9.92271 8.28432 10.2726C8.28432 10.6225 8.05104 10.8558 7.70112 10.8558C7.3512 10.8558 7.11792 10.6225 7.11792 10.2726C7.11792 9.92271 7.3512 9.68943 7.70112 9.68943ZM4.78513 7.35664C5.13505 7.35664 5.36833 7.58992 5.36833 7.93983C5.36833 8.28975 5.13505 8.52303 4.78513 8.52303C4.43521 8.52303 4.20193 8.28975 4.20193 7.93983C4.20193 7.58992 4.43521 7.35664 4.78513 7.35664ZM4.78513 9.68943C5.13505 9.68943 5.36833 9.92271 5.36833 10.2726C5.36833 10.6225 5.13505 10.8558 4.78513 10.8558C4.43521 10.8558 4.20193 10.6225 4.20193 10.2726C4.20193 9.92271 4.43521 9.68943 4.78513 9.68943Z" fill="#427EDE"/>
</svg>
