<svg width="16" height="16" viewBox="0 0 16 16" fill="none" xmlns="http://www.w3.org/2000/svg">
<path d="M8.71254 13.2381C10.1663 11.9587 12.7526 9.34484 12.7526 6.94614C12.7526 5.61893 12.2254 4.34608 11.2869 3.4076C10.3484 2.46913 9.0756 1.94189 7.74839 1.94189C6.42118 1.94189 5.14833 2.46913 4.20985 3.4076C3.27137 4.34608 2.74414 5.61893 2.74414 6.94614C2.74414 9.34484 5.32967 11.9587 6.78424 13.2381C7.04955 13.475 7.39275 13.6059 7.74839 13.6059C8.10402 13.6059 8.44722 13.475 8.71254 13.2381ZM6.0803 6.94614C6.0803 6.50374 6.25605 6.07945 6.56887 5.76663C6.8817 5.4538 7.30598 5.27806 7.74839 5.27806C8.19079 5.27806 8.61507 5.4538 8.9279 5.76663C9.24072 6.07945 9.41647 6.50374 9.41647 6.94614C9.41647 7.38854 9.24072 7.81283 8.9279 8.12565C8.61507 8.43848 8.19079 8.61422 7.74839 8.61422C7.30598 8.61422 6.8817 8.43848 6.56887 8.12565C6.25605 7.81283 6.0803 7.38854 6.0803 6.94614Z" fill="#D43E2E"/>
</svg>
