<svg width="16" height="15" viewBox="0 0 16 15" fill="none" xmlns="http://www.w3.org/2000/svg">
<path d="M11.8304 2.94032H11.2472V2.35712C11.2472 2.0072 11.0139 1.77393 10.664 1.77393C10.3141 1.77393 10.0808 2.0072 10.0808 2.35712V2.94032H5.4152V2.35712C5.4152 2.0072 5.18192 1.77393 4.832 1.77393C4.48209 1.77393 4.24881 2.0072 4.24881 2.35712V2.94032H3.66561C2.67417 2.94032 1.91602 3.69848 1.91602 4.68991V5.27311H13.58V4.68991C13.58 3.69848 12.8218 2.94032 11.8304 2.94032ZM1.91602 11.6883C1.91602 12.6797 2.67417 13.4379 3.66561 13.4379H11.8304C12.8218 13.4379 13.58 12.6797 13.58 11.6883V6.43951H1.91602V11.6883ZM10.664 7.6059C11.0139 7.6059 11.2472 7.83918 11.2472 8.1891C11.2472 8.53902 11.0139 8.7723 10.664 8.7723C10.3141 8.7723 10.0808 8.53902 10.0808 8.1891C10.0808 7.83918 10.3141 7.6059 10.664 7.6059ZM10.664 9.9387C11.0139 9.9387 11.2472 10.172 11.2472 10.5219C11.2472 10.8718 11.0139 11.1051 10.664 11.1051C10.3141 11.1051 10.0808 10.8718 10.0808 10.5219C10.0808 10.172 10.3141 9.9387 10.664 9.9387ZM7.74799 7.6059C8.09791 7.6059 8.33119 7.83918 8.33119 8.1891C8.33119 8.53902 8.09791 8.7723 7.74799 8.7723C7.39808 8.7723 7.1648 8.53902 7.1648 8.1891C7.1648 7.83918 7.39808 7.6059 7.74799 7.6059ZM7.74799 9.9387C8.09791 9.9387 8.33119 10.172 8.33119 10.5219C8.33119 10.8718 8.09791 11.1051 7.74799 11.1051C7.39808 11.1051 7.1648 10.8718 7.1648 10.5219C7.1648 10.172 7.39808 9.9387 7.74799 9.9387ZM4.832 7.6059C5.18192 7.6059 5.4152 7.83918 5.4152 8.1891C5.4152 8.53902 5.18192 8.7723 4.832 8.7723C4.48209 8.7723 4.24881 8.53902 4.24881 8.1891C4.24881 7.83918 4.48209 7.6059 4.832 7.6059ZM4.832 9.9387C5.18192 9.9387 5.4152 10.172 5.4152 10.5219C5.4152 10.8718 5.18192 11.1051 4.832 11.1051C4.48209 11.1051 4.24881 10.8718 4.24881 10.5219C4.24881 10.172 4.48209 9.9387 4.832 9.9387Z" fill="#427EDE"/>
</svg>
