<svg width="16" height="15" viewBox="0 0 16 15" fill="none" xmlns="http://www.w3.org/2000/svg">
<path d="M11.8304 2.69105H11.2472V2.10786C11.2472 1.75794 11.0139 1.52466 10.664 1.52466C10.3141 1.52466 10.0808 1.75794 10.0808 2.10786V2.69105H5.4152V2.10786C5.4152 1.75794 5.18192 1.52466 4.832 1.52466C4.48209 1.52466 4.24881 1.75794 4.24881 2.10786V2.69105H3.66561C2.67417 2.69105 1.91602 3.44921 1.91602 4.44065V5.02385H13.58V4.44065C13.58 3.44921 12.8218 2.69105 11.8304 2.69105ZM1.91602 11.439C1.91602 12.4305 2.67417 13.1886 3.66561 13.1886H11.8304C12.8218 13.1886 13.58 12.4305 13.58 11.439V6.19024H1.91602V11.439ZM10.664 7.35664C11.0139 7.35664 11.2472 7.58992 11.2472 7.93983C11.2472 8.28975 11.0139 8.52303 10.664 8.52303C10.3141 8.52303 10.0808 8.28975 10.0808 7.93983C10.0808 7.58992 10.3141 7.35664 10.664 7.35664ZM10.664 9.68943C11.0139 9.68943 11.2472 9.92271 11.2472 10.2726C11.2472 10.6225 11.0139 10.8558 10.664 10.8558C10.3141 10.8558 10.0808 10.6225 10.0808 10.2726C10.0808 9.92271 10.3141 9.68943 10.664 9.68943ZM7.74799 7.35664C8.09791 7.35664 8.33119 7.58992 8.33119 7.93983C8.33119 8.28975 8.09791 8.52303 7.74799 8.52303C7.39808 8.52303 7.1648 8.28975 7.1648 7.93983C7.1648 7.58992 7.39808 7.35664 7.74799 7.35664ZM7.74799 9.68943C8.09791 9.68943 8.33119 9.92271 8.33119 10.2726C8.33119 10.6225 8.09791 10.8558 7.74799 10.8558C7.39808 10.8558 7.1648 10.6225 7.1648 10.2726C7.1648 9.92271 7.39808 9.68943 7.74799 9.68943ZM4.832 7.35664C5.18192 7.35664 5.4152 7.58992 5.4152 7.93983C5.4152 8.28975 5.18192 8.52303 4.832 8.52303C4.48209 8.52303 4.24881 8.28975 4.24881 7.93983C4.24881 7.58992 4.48209 7.35664 4.832 7.35664ZM4.832 9.68943C5.18192 9.68943 5.4152 9.92271 5.4152 10.2726C5.4152 10.6225 5.18192 10.8558 4.832 10.8558C4.48209 10.8558 4.24881 10.6225 4.24881 10.2726C4.24881 9.92271 4.48209 9.68943 4.832 9.68943Z" fill="#427EDE"/>
</svg>
