<svg width="16" height="15" viewBox="0 0 16 15" fill="none" xmlns="http://www.w3.org/2000/svg">
<path d="M8.75941 12.8126C10.2131 11.5332 12.7995 8.91931 12.7995 6.5206C12.7995 5.1934 12.2723 3.92055 11.3338 2.98207C10.3953 2.04359 9.12247 1.51636 7.79526 1.51636C6.46805 1.51636 5.1952 2.04359 4.25673 2.98207C3.31825 3.92055 2.79102 5.1934 2.79102 6.5206C2.79102 8.91931 5.37654 11.5332 6.83111 12.8126C7.09643 13.0494 7.43963 13.1803 7.79526 13.1803C8.1509 13.1803 8.49409 13.0494 8.75941 12.8126ZM6.12718 6.5206C6.12718 6.0782 6.30292 5.65392 6.61575 5.34109C6.92858 5.02827 7.35286 4.85252 7.79526 4.85252C8.23766 4.85252 8.66195 5.02827 8.97477 5.34109C9.2876 5.65392 9.46334 6.0782 9.46334 6.5206C9.46334 6.96301 9.2876 7.38729 8.97477 7.70012C8.66195 8.01294 8.23766 8.18869 7.79526 8.18869C7.35286 8.18869 6.92858 8.01294 6.61575 7.70012C6.30292 7.38729 6.12718 6.96301 6.12718 6.5206Z" fill="#D43E2E"/>
</svg>
