<svg width="16" height="15" viewBox="0 0 16 15" fill="none" xmlns="http://www.w3.org/2000/svg">
<path d="M11.9241 2.76405H11.3409V2.18085C11.3409 1.83094 11.1077 1.59766 10.7577 1.59766C10.4078 1.59766 10.1745 1.83094 10.1745 2.18085V2.76405H5.50895V2.18085C5.50895 1.83094 5.27567 1.59766 4.92575 1.59766C4.57584 1.59766 4.34256 1.83094 4.34256 2.18085V2.76405H3.75936C2.76792 2.76405 2.00977 3.52221 2.00977 4.51365V5.09684H13.6737V4.51365C13.6737 3.52221 12.9156 2.76405 11.9241 2.76405ZM2.00977 11.512C2.00977 12.5035 2.76792 13.2616 3.75936 13.2616H11.9241C12.9156 13.2616 13.6737 12.5035 13.6737 11.512V6.26324H2.00977V11.512ZM10.7577 7.42963C11.1077 7.42963 11.3409 7.66291 11.3409 8.01283C11.3409 8.36275 11.1077 8.59603 10.7577 8.59603C10.4078 8.59603 10.1745 8.36275 10.1745 8.01283C10.1745 7.66291 10.4078 7.42963 10.7577 7.42963ZM10.7577 9.76243C11.1077 9.76243 11.3409 9.99571 11.3409 10.3456C11.3409 10.6955 11.1077 10.9288 10.7577 10.9288C10.4078 10.9288 10.1745 10.6955 10.1745 10.3456C10.1745 9.99571 10.4078 9.76243 10.7577 9.76243ZM7.84174 7.42963C8.19166 7.42963 8.42494 7.66291 8.42494 8.01283C8.42494 8.36275 8.19166 8.59603 7.84174 8.59603C7.49183 8.59603 7.25855 8.36275 7.25855 8.01283C7.25855 7.66291 7.49183 7.42963 7.84174 7.42963ZM7.84174 9.76243C8.19166 9.76243 8.42494 9.99571 8.42494 10.3456C8.42494 10.6955 8.19166 10.9288 7.84174 10.9288C7.49183 10.9288 7.25855 10.6955 7.25855 10.3456C7.25855 9.99571 7.49183 9.76243 7.84174 9.76243ZM4.92575 7.42963C5.27567 7.42963 5.50895 7.66291 5.50895 8.01283C5.50895 8.36275 5.27567 8.59603 4.92575 8.59603C4.57584 8.59603 4.34256 8.36275 4.34256 8.01283C4.34256 7.66291 4.57584 7.42963 4.92575 7.42963ZM4.92575 9.76243C5.27567 9.76243 5.50895 9.99571 5.50895 10.3456C5.50895 10.6955 5.27567 10.9288 4.92575 10.9288C4.57584 10.9288 4.34256 10.6955 4.34256 10.3456C4.34256 9.99571 4.57584 9.76243 4.92575 9.76243Z" fill="#427EDE"/>
</svg>
