<svg width="15" height="15" viewBox="0 0 15 15" fill="none" xmlns="http://www.w3.org/2000/svg">
<path d="M8.66566 12.9889C10.1194 11.7095 12.7058 9.09558 12.7058 6.69687C12.7058 5.36966 12.1785 4.09681 11.24 3.15834C10.3016 2.21986 9.02872 1.69263 7.70151 1.69263C6.3743 1.69263 5.10145 2.21986 4.16298 3.15834C3.2245 4.09681 2.69727 5.36966 2.69727 6.69687C2.69727 9.09558 5.28279 11.7095 6.73736 12.9889C7.00268 13.2257 7.34588 13.3566 7.70151 13.3566C8.05715 13.3566 8.40034 13.2257 8.66566 12.9889ZM6.03343 6.69687C6.03343 6.25447 6.20917 5.83019 6.522 5.51736C6.83483 5.20453 7.25911 5.02879 7.70151 5.02879C8.14391 5.02879 8.5682 5.20453 8.88102 5.51736C9.19385 5.83019 9.36959 6.25447 9.36959 6.69687C9.36959 7.13928 9.19385 7.56356 8.88102 7.87639C8.5682 8.18921 8.14391 8.36496 7.70151 8.36496C7.25911 8.36496 6.83483 8.18921 6.522 7.87639C6.20917 7.56356 6.03343 7.13928 6.03343 6.69687Z" fill="#D43E2E"/>
</svg>
