<svg width="16" height="15" viewBox="0 0 16 15" fill="none" xmlns="http://www.w3.org/2000/svg">
<path d="M11.8773 2.76405H11.2941V2.18085C11.2941 1.83094 11.0608 1.59766 10.7109 1.59766C10.3609 1.59766 10.1277 1.83094 10.1277 2.18085V2.76405H5.46208V2.18085C5.46208 1.83094 5.2288 1.59766 4.87888 1.59766C4.52896 1.59766 4.29568 1.83094 4.29568 2.18085V2.76405H3.71248C2.72105 2.76405 1.96289 3.52221 1.96289 4.51365V5.09684H13.6268V4.51365C13.6268 3.52221 12.8687 2.76405 11.8773 2.76405ZM1.96289 11.512C1.96289 12.5035 2.72105 13.2616 3.71248 13.2616H11.8773C12.8687 13.2616 13.6268 12.5035 13.6268 11.512V6.26324H1.96289V11.512ZM10.7109 7.42963C11.0608 7.42963 11.2941 7.66291 11.2941 8.01283C11.2941 8.36275 11.0608 8.59603 10.7109 8.59603C10.3609 8.59603 10.1277 8.36275 10.1277 8.01283C10.1277 7.66291 10.3609 7.42963 10.7109 7.42963ZM10.7109 9.76243C11.0608 9.76243 11.2941 9.99571 11.2941 10.3456C11.2941 10.6955 11.0608 10.9288 10.7109 10.9288C10.3609 10.9288 10.1277 10.6955 10.1277 10.3456C10.1277 9.99571 10.3609 9.76243 10.7109 9.76243ZM7.79487 7.42963C8.14479 7.42963 8.37807 7.66291 8.37807 8.01283C8.37807 8.36275 8.14479 8.59603 7.79487 8.59603C7.44495 8.59603 7.21167 8.36275 7.21167 8.01283C7.21167 7.66291 7.44495 7.42963 7.79487 7.42963ZM7.79487 9.76243C8.14479 9.76243 8.37807 9.99571 8.37807 10.3456C8.37807 10.6955 8.14479 10.9288 7.79487 10.9288C7.44495 10.9288 7.21167 10.6955 7.21167 10.3456C7.21167 9.99571 7.44495 9.76243 7.79487 9.76243ZM4.87888 7.42963C5.2288 7.42963 5.46208 7.66291 5.46208 8.01283C5.46208 8.36275 5.2288 8.59603 4.87888 8.59603C4.52896 8.59603 4.29568 8.36275 4.29568 8.01283C4.29568 7.66291 4.52896 7.42963 4.87888 7.42963ZM4.87888 9.76243C5.2288 9.76243 5.46208 9.99571 5.46208 10.3456C5.46208 10.6955 5.2288 10.9288 4.87888 10.9288C4.52896 10.9288 4.29568 10.6955 4.29568 10.3456C4.29568 9.99571 4.52896 9.76243 4.87888 9.76243Z" fill="#427EDE"/>
</svg>
