<svg width="15" height="16" viewBox="0 0 15 16" fill="none" xmlns="http://www.w3.org/2000/svg">
<path d="M8.66566 13.2381C10.1194 11.9587 12.7058 9.34484 12.7058 6.94614C12.7058 5.61893 12.1785 4.34608 11.24 3.4076C10.3016 2.46913 9.02872 1.94189 7.70151 1.94189C6.3743 1.94189 5.10145 2.46913 4.16298 3.4076C3.2245 4.34608 2.69727 5.61893 2.69727 6.94614C2.69727 9.34484 5.28279 11.9587 6.73736 13.2381C7.00268 13.475 7.34588 13.6059 7.70151 13.6059C8.05715 13.6059 8.40034 13.475 8.66566 13.2381ZM6.03343 6.94614C6.03343 6.50374 6.20917 6.07945 6.522 5.76663C6.83483 5.4538 7.25911 5.27806 7.70151 5.27806C8.14391 5.27806 8.5682 5.4538 8.88102 5.76663C9.19385 6.07945 9.36959 6.50374 9.36959 6.94614C9.36959 7.38854 9.19385 7.81283 8.88102 8.12565C8.5682 8.43848 8.14391 8.61422 7.70151 8.61422C7.25911 8.61422 6.83483 8.43848 6.522 8.12565C6.20917 7.81283 6.03343 7.38854 6.03343 6.94614Z" fill="#D43E2E"/>
</svg>
