<svg width="16" height="16" viewBox="0 0 16 16" fill="none" xmlns="http://www.w3.org/2000/svg">
<path d="M11.8773 3.51478H11.2941V2.93159C11.2941 2.58167 11.0608 2.34839 10.7109 2.34839C10.3609 2.34839 10.1277 2.58167 10.1277 2.93159V3.51478H5.46208V2.93159C5.46208 2.58167 5.2288 2.34839 4.87888 2.34839C4.52896 2.34839 4.29568 2.58167 4.29568 2.93159V3.51478H3.71248C2.72105 3.51478 1.96289 4.27294 1.96289 5.26438V5.84758H13.6268V5.26438C13.6268 4.27294 12.8687 3.51478 11.8773 3.51478ZM1.96289 12.2628C1.96289 13.2542 2.72105 14.0123 3.71248 14.0123H11.8773C12.8687 14.0123 13.6268 13.2542 13.6268 12.2628V7.01397H1.96289V12.2628ZM10.7109 8.18037C11.0608 8.18037 11.2941 8.41365 11.2941 8.76356C11.2941 9.11348 11.0608 9.34676 10.7109 9.34676C10.3609 9.34676 10.1277 9.11348 10.1277 8.76356C10.1277 8.41365 10.3609 8.18037 10.7109 8.18037ZM10.7109 10.5132C11.0608 10.5132 11.2941 10.7464 11.2941 11.0964C11.2941 11.4463 11.0608 11.6796 10.7109 11.6796C10.3609 11.6796 10.1277 11.4463 10.1277 11.0964C10.1277 10.7464 10.3609 10.5132 10.7109 10.5132ZM7.79487 8.18037C8.14479 8.18037 8.37807 8.41365 8.37807 8.76356C8.37807 9.11348 8.14479 9.34676 7.79487 9.34676C7.44495 9.34676 7.21167 9.11348 7.21167 8.76356C7.21167 8.41365 7.44495 8.18037 7.79487 8.18037ZM7.79487 10.5132C8.14479 10.5132 8.37807 10.7464 8.37807 11.0964C8.37807 11.4463 8.14479 11.6796 7.79487 11.6796C7.44495 11.6796 7.21167 11.4463 7.21167 11.0964C7.21167 10.7464 7.44495 10.5132 7.79487 10.5132ZM4.87888 8.18037C5.2288 8.18037 5.46208 8.41365 5.46208 8.76356C5.46208 9.11348 5.2288 9.34676 4.87888 9.34676C4.52896 9.34676 4.29568 9.11348 4.29568 8.76356C4.29568 8.41365 4.52896 8.18037 4.87888 8.18037ZM4.87888 10.5132C5.2288 10.5132 5.46208 10.7464 5.46208 11.0964C5.46208 11.4463 5.2288 11.6796 4.87888 11.6796C4.52896 11.6796 4.29568 11.4463 4.29568 11.0964C4.29568 10.7464 4.52896 10.5132 4.87888 10.5132Z" fill="#427EDE"/>
</svg>
