<svg width="16" height="15" viewBox="0 0 16 15" fill="none" xmlns="http://www.w3.org/2000/svg">
<path d="M8.71254 12.9889C10.1663 11.7095 12.7526 9.09558 12.7526 6.69687C12.7526 5.36966 12.2254 4.09681 11.2869 3.15834C10.3484 2.21986 9.0756 1.69263 7.74839 1.69263C6.42118 1.69263 5.14833 2.21986 4.20985 3.15834C3.27137 4.09681 2.74414 5.36966 2.74414 6.69687C2.74414 9.09558 5.32967 11.7095 6.78424 12.9889C7.04955 13.2257 7.39275 13.3566 7.74839 13.3566C8.10402 13.3566 8.44722 13.2257 8.71254 12.9889ZM6.0803 6.69687C6.0803 6.25447 6.25605 5.83019 6.56887 5.51736C6.8817 5.20453 7.30598 5.02879 7.74839 5.02879C8.19079 5.02879 8.61507 5.20453 8.9279 5.51736C9.24072 5.83019 9.41647 6.25447 9.41647 6.69687C9.41647 7.13928 9.24072 7.56356 8.9279 7.87639C8.61507 8.18921 8.19079 8.36496 7.74839 8.36496C7.30598 8.36496 6.8817 8.18921 6.56887 7.87639C6.25605 7.56356 6.0803 7.13928 6.0803 6.69687Z" fill="#D43E2E"/>
</svg>
