<svg width="15" height="15" viewBox="0 0 15 15" fill="none" xmlns="http://www.w3.org/2000/svg">
<path d="M11.7835 2.94032H11.2003V2.35712C11.2003 2.0072 10.967 1.77393 10.6171 1.77393C10.2672 1.77393 10.0339 2.0072 10.0339 2.35712V2.94032H5.36833V2.35712C5.36833 2.0072 5.13505 1.77393 4.78513 1.77393C4.43521 1.77393 4.20193 2.0072 4.20193 2.35712V2.94032H3.61873C2.6273 2.94032 1.86914 3.69848 1.86914 4.68991V5.27311H13.5331V4.68991C13.5331 3.69848 12.7749 2.94032 11.7835 2.94032ZM1.86914 11.6883C1.86914 12.6797 2.6273 13.4379 3.61873 13.4379H11.7835C12.7749 13.4379 13.5331 12.6797 13.5331 11.6883V6.43951H1.86914V11.6883ZM10.6171 7.6059C10.967 7.6059 11.2003 7.83918 11.2003 8.1891C11.2003 8.53902 10.967 8.7723 10.6171 8.7723C10.2672 8.7723 10.0339 8.53902 10.0339 8.1891C10.0339 7.83918 10.2672 7.6059 10.6171 7.6059ZM10.6171 9.9387C10.967 9.9387 11.2003 10.172 11.2003 10.5219C11.2003 10.8718 10.967 11.1051 10.6171 11.1051C10.2672 11.1051 10.0339 10.8718 10.0339 10.5219C10.0339 10.172 10.2672 9.9387 10.6171 9.9387ZM7.70112 7.6059C8.05104 7.6059 8.28432 7.83918 8.28432 8.1891C8.28432 8.53902 8.05104 8.7723 7.70112 8.7723C7.3512 8.7723 7.11792 8.53902 7.11792 8.1891C7.11792 7.83918 7.3512 7.6059 7.70112 7.6059ZM7.70112 9.9387C8.05104 9.9387 8.28432 10.172 8.28432 10.5219C8.28432 10.8718 8.05104 11.1051 7.70112 11.1051C7.3512 11.1051 7.11792 10.8718 7.11792 10.5219C7.11792 10.172 7.3512 9.9387 7.70112 9.9387ZM4.78513 7.6059C5.13505 7.6059 5.36833 7.83918 5.36833 8.1891C5.36833 8.53902 5.13505 8.7723 4.78513 8.7723C4.43521 8.7723 4.20193 8.53902 4.20193 8.1891C4.20193 7.83918 4.43521 7.6059 4.78513 7.6059ZM4.78513 9.9387C5.13505 9.9387 5.36833 10.172 5.36833 10.5219C5.36833 10.8718 5.13505 11.1051 4.78513 11.1051C4.43521 11.1051 4.20193 10.8718 4.20193 10.5219C4.20193 10.172 4.43521 9.9387 4.78513 9.9387Z" fill="#427EDE"/>
</svg>
