<svg width="16" height="16" viewBox="0 0 16 16" fill="none" xmlns="http://www.w3.org/2000/svg">
<path d="M11.9241 3.51478H11.3409V2.93159C11.3409 2.58167 11.1077 2.34839 10.7577 2.34839C10.4078 2.34839 10.1745 2.58167 10.1745 2.93159V3.51478H5.50895V2.93159C5.50895 2.58167 5.27567 2.34839 4.92575 2.34839C4.57584 2.34839 4.34256 2.58167 4.34256 2.93159V3.51478H3.75936C2.76792 3.51478 2.00977 4.27294 2.00977 5.26438V5.84758H13.6737V5.26438C13.6737 4.27294 12.9156 3.51478 11.9241 3.51478ZM2.00977 12.2628C2.00977 13.2542 2.76792 14.0123 3.75936 14.0123H11.9241C12.9156 14.0123 13.6737 13.2542 13.6737 12.2628V7.01397H2.00977V12.2628ZM10.7577 8.18037C11.1077 8.18037 11.3409 8.41365 11.3409 8.76356C11.3409 9.11348 11.1077 9.34676 10.7577 9.34676C10.4078 9.34676 10.1745 9.11348 10.1745 8.76356C10.1745 8.41365 10.4078 8.18037 10.7577 8.18037ZM10.7577 10.5132C11.1077 10.5132 11.3409 10.7464 11.3409 11.0964C11.3409 11.4463 11.1077 11.6796 10.7577 11.6796C10.4078 11.6796 10.1745 11.4463 10.1745 11.0964C10.1745 10.7464 10.4078 10.5132 10.7577 10.5132ZM7.84174 8.18037C8.19166 8.18037 8.42494 8.41365 8.42494 8.76356C8.42494 9.11348 8.19166 9.34676 7.84174 9.34676C7.49183 9.34676 7.25855 9.11348 7.25855 8.76356C7.25855 8.41365 7.49183 8.18037 7.84174 8.18037ZM7.84174 10.5132C8.19166 10.5132 8.42494 10.7464 8.42494 11.0964C8.42494 11.4463 8.19166 11.6796 7.84174 11.6796C7.49183 11.6796 7.25855 11.4463 7.25855 11.0964C7.25855 10.7464 7.49183 10.5132 7.84174 10.5132ZM4.92575 8.18037C5.27567 8.18037 5.50895 8.41365 5.50895 8.76356C5.50895 9.11348 5.27567 9.34676 4.92575 9.34676C4.57584 9.34676 4.34256 9.11348 4.34256 8.76356C4.34256 8.41365 4.57584 8.18037 4.92575 8.18037ZM4.92575 10.5132C5.27567 10.5132 5.50895 10.7464 5.50895 11.0964C5.50895 11.4463 5.27567 11.6796 4.92575 11.6796C4.57584 11.6796 4.34256 11.4463 4.34256 11.0964C4.34256 10.7464 4.57584 10.5132 4.92575 10.5132Z" fill="#427EDE"/>
</svg>
